<?xml version="1.0" encoding="UTF-8" standalone="no"?>
<!-- Created with Inkscape (http://www.inkscape.org/) -->

<svg
   version="1.1"
   id="svg1"
   width="300.95999"
   height="110.96"
   viewBox="0 0 300.95999 110.96"
   sodipodi:docname="IEEE CIS logo RGB.eps"
   xmlns:inkscape="http://www.inkscape.org/namespaces/inkscape"
   xmlns:sodipodi="http://sodipodi.sourceforge.net/DTD/sodipodi-0.dtd"
   xmlns="http://www.w3.org/2000/svg"
   xmlns:svg="http://www.w3.org/2000/svg">
  <defs
     id="defs1" />
  <sodipodi:namedview
     id="namedview1"
     pagecolor="#ffffff"
     bordercolor="#000000"
     borderopacity="0.25"
     inkscape:showpageshadow="2"
     inkscape:pageopacity="0.0"
     inkscape:pagecheckerboard="0"
     inkscape:deskcolor="#d1d1d1">
    <inkscape:page
       x="0"
       y="0"
       inkscape:label="1"
       id="page1"
       width="300.95999"
       height="110.96"
       margin="0"
       bleed="0" />
  </sodipodi:namedview>
  <g
     id="g1"
     inkscape:groupmode="layer"
     inkscape:label="1">
    <g
       id="group-R5">
      <path
         id="path2"
         d="m 793.336,468.496 c -45.18,0 -69.305,33.445 -69.305,78.414 0,48.879 28.676,78.438 69.528,78.438 37.367,0 52.14,-16.075 62.57,-44.762 L 817.895,565.59 c -5.43,14.125 -10.649,23.031 -24.559,23.031 -17.598,0 -25.195,-17.586 -25.195,-41.711 0,-23.25 7.382,-41.707 25.632,-41.707 13.262,0 18.907,7.168 27.168,21.508 l 35.637,-18.891 c -10.215,-20 -27.176,-39.324 -63.242,-39.324"
         style="fill:#100f0e;fill-opacity:1;fill-rule:nonzero;stroke:none"
         transform="matrix(0.13333333,0,0,-0.13333333,0,110.96)" />
      <path
         id="path3"
         d="m 923.27,555.602 c -10.215,0 -15.43,-8.254 -15.43,-27.586 0,-18.907 5.215,-27.813 15.43,-27.813 10.199,0 15.414,8.906 15.414,27.813 0,19.332 -5.215,27.586 -15.414,27.586 z m 0,-87.106 c -31.508,0 -54.106,20.195 -54.106,59.52 0,39.754 22.598,59.308 54.106,59.308 31.492,0 54.304,-19.554 54.304,-59.308 0,-39.325 -22.812,-59.52 -54.304,-59.52"
         style="fill:#100f0e;fill-opacity:1;fill-rule:nonzero;stroke:none"
         transform="matrix(0.13333333,0,0,-0.13333333,0,110.96)" />
      <path
         id="path4"
         d="m 1127.93,470.879 v 64.734 c 0,14.774 -4.57,18.688 -12.39,18.688 -8.02,0 -12.59,-3.914 -12.59,-18.254 v -65.168 h -39.11 v 64.734 c 0,14.774 -4.78,18.688 -12.6,18.688 -8.05,0 -12.6,-3.914 -12.6,-18.254 V 470.879 H 999.527 V 584.93 h 39.113 v -7.594 c 6.29,5.211 14.77,9.988 27.15,9.988 15.65,0 24.34,-5 31.51,-12.82 8.24,6.734 17.6,12.82 33.23,12.82 25.64,0 36.72,-16.734 36.72,-46.715 v -69.73 h -39.32"
         style="fill:#100f0e;fill-opacity:1;fill-rule:nonzero;stroke:none"
         transform="matrix(0.13333333,0,0,-0.13333333,0,110.96)" />
      <path
         id="path5"
         d="m 1245.9,555.172 c -5.67,0 -9.79,-2.18 -13.91,-5.43 v -43.656 c 4.12,-3.266 8.03,-5.453 14.12,-5.453 8.03,0 12.17,5 12.17,26.289 0,22.82 -4.14,28.25 -12.38,28.25 z m 11.5,-86.676 c -11.29,0 -19.12,5.215 -25.41,9.981 V 444.59 l -39.11,-15.645 V 584.93 h 39.11 v -8.035 c 7.81,6.082 14.98,10.429 26.94,10.429 21.5,0 38.01,-16.734 38.01,-59.094 0,-40.839 -14.55,-59.734 -39.54,-59.734"
         style="fill:#100f0e;fill-opacity:1;fill-rule:nonzero;stroke:none"
         transform="matrix(0.13333333,0,0,-0.13333333,0,110.96)" />
      <path
         id="path6"
         d="m 1383.85,470.879 v 7.598 c -6.95,-5.43 -15.21,-9.981 -28.47,-9.981 -24.98,0 -36.93,16.719 -36.93,46.707 v 69.727 h 39.32 v -64.746 c 0,-14.762 5,-18.672 13.05,-18.672 8.03,0 13.03,3.91 13.03,18.242 v 65.176 h 39.32 V 470.879 h -39.32"
         style="fill:#100f0e;fill-opacity:1;fill-rule:nonzero;stroke:none"
         transform="matrix(0.13333333,0,0,-0.13333333,0,110.96)" />
      <path
         id="path7"
         d="m 1519.63,474.57 c -7.6,-3.691 -17.17,-6.074 -28.25,-6.074 -20.63,0 -30.2,10.41 -30.2,36.277 v 49.528 h -17.36 v 30.629 h 17.36 v 28.902 l 38.04,15.422 V 584.93 h 24.77 v -30.629 h -24.77 v -41.285 c 0,-8.672 3.24,-11.289 9.77,-11.289 5.21,0 9.57,1.953 15.64,6.093 l -5,-33.25"
         style="fill:#100f0e;fill-opacity:1;fill-rule:nonzero;stroke:none"
         transform="matrix(0.13333333,0,0,-0.13333333,0,110.96)" />
      <path
         id="path8"
         d="m 1607.22,517.371 c -4.34,1.953 -9.34,3.262 -16.72,3.262 -8.06,0 -12.18,-4.356 -12.18,-12.168 0,-7.168 3.7,-12.379 12.18,-12.379 6.5,0 13.03,2.594 16.72,5.641 z m 0,-46.492 v 7.598 c -7.38,-5.645 -17.38,-9.981 -27.81,-9.981 -22.16,0 -36.93,13.672 -36.93,39.324 0,24.539 16.94,37.137 41.06,37.137 10.44,0 17.37,-1.953 23.68,-4.781 v 5.648 c 0,9.992 -5.43,13.469 -16.08,13.469 -11.73,0 -20.65,-2.168 -31.72,-8.254 l -10.22,25.856 c 13.91,6.738 29.34,10.429 49.11,10.429 31.94,0 45.84,-15.859 45.84,-42.367 v -74.078 h -36.93"
         style="fill:#100f0e;fill-opacity:1;fill-rule:nonzero;stroke:none"
         transform="matrix(0.13333333,0,0,-0.13333333,0,110.96)" />
      <path
         id="path9"
         d="m 1739.74,474.57 c -7.6,-3.691 -17.17,-6.074 -28.24,-6.074 -20.64,0 -30.21,10.41 -30.21,36.277 v 49.528 h -17.36 v 30.629 h 17.36 v 28.902 l 38.04,15.422 V 584.93 h 24.76 v -30.629 h -24.76 v -41.285 c 0,-8.672 3.24,-11.289 9.76,-11.289 5.22,0 9.57,1.953 15.65,6.093 l -5,-33.25"
         style="fill:#100f0e;fill-opacity:1;fill-rule:nonzero;stroke:none"
         transform="matrix(0.13333333,0,0,-0.13333333,0,110.96)" />
      <path
         id="path10"
         d="M 1770.79,470.879 V 584.93 h 39.11 V 470.879 Z m 19.56,122.305 c -12.81,0 -22.37,7.39 -22.37,19.339 0,11.086 9.56,18.899 22.37,18.899 13.48,0 22.82,-7.813 22.82,-18.899 0,-11.949 -9.34,-19.339 -22.82,-19.339"
         style="fill:#100f0e;fill-opacity:1;fill-rule:nonzero;stroke:none"
         transform="matrix(0.13333333,0,0,-0.13333333,0,110.96)" />
      <path
         id="path11"
         d="m 1887.04,555.602 c -10.21,0 -15.43,-8.254 -15.43,-27.586 0,-18.907 5.22,-27.813 15.43,-27.813 10.21,0 15.41,8.906 15.41,27.813 0,19.332 -5.2,27.586 -15.41,27.586 z m 0,-87.106 c -31.5,0 -54.1,20.195 -54.1,59.52 0,39.754 22.6,59.308 54.1,59.308 31.5,0 54.31,-19.554 54.31,-59.308 0,-39.325 -22.81,-59.52 -54.31,-59.52"
         style="fill:#100f0e;fill-opacity:1;fill-rule:nonzero;stroke:none"
         transform="matrix(0.13333333,0,0,-0.13333333,0,110.96)" />
      <path
         id="path12"
         d="m 2028.7,470.879 v 64.734 c 0,14.774 -5,18.688 -13.04,18.688 -8.25,0 -13.25,-3.914 -13.25,-18.254 V 470.879 H 1963.3 V 584.93 h 39.11 v -7.594 c 7.17,5.426 15.2,9.988 28.68,9.988 24.99,0 36.94,-16.734 36.94,-46.715 v -69.73 h -39.33"
         style="fill:#100f0e;fill-opacity:1;fill-rule:nonzero;stroke:none"
         transform="matrix(0.13333333,0,0,-0.13333333,0,110.96)" />
      <path
         id="path13"
         d="m 2154.48,517.371 c -4.33,1.953 -9.33,3.262 -16.71,3.262 -8.05,0 -12.17,-4.356 -12.17,-12.168 0,-7.168 3.69,-12.379 12.17,-12.379 6.5,0 13.02,2.594 16.71,5.641 z m 0,-46.492 v 7.598 c -7.38,-5.645 -17.38,-9.981 -27.81,-9.981 -22.15,0 -36.92,13.672 -36.92,39.324 0,24.539 16.94,37.137 41.06,37.137 10.43,0 17.37,-1.953 23.67,-4.781 v 5.648 c 0,9.992 -5.42,13.469 -16.07,13.469 -11.74,0 -20.64,-2.168 -31.72,-8.254 l -10.22,25.856 c 13.91,6.738 29.34,10.429 49.11,10.429 31.94,0 45.85,-15.859 45.85,-42.367 v -74.078 h -36.95"
         style="fill:#100f0e;fill-opacity:1;fill-rule:nonzero;stroke:none"
         transform="matrix(0.13333333,0,0,-0.13333333,0,110.96)" />
      <path
         id="path14"
         d="m 2218.13,470.879 v 142.73 l 39.11,15.645 V 470.879 h -39.11"
         style="fill:#100f0e;fill-opacity:1;fill-rule:nonzero;stroke:none"
         transform="matrix(0.13333333,0,0,-0.13333333,0,110.96)" />
      <path
         id="path15"
         d="m 731.414,257.188 v 152.07 h 43.016 v -152.07 h -43.016"
         style="fill:#100f0e;fill-opacity:1;fill-rule:nonzero;stroke:none"
         transform="matrix(0.13333333,0,0,-0.13333333,0,110.96)" />
      <path
         id="path16"
         d="m 870.699,257.188 v 64.734 c 0,14.789 -5,18.691 -13.047,18.691 -8.242,0 -13.242,-3.902 -13.242,-18.242 V 257.188 H 805.297 V 371.25 h 39.113 v -7.598 c 7.168,5.43 15.195,9.981 28.68,9.981 24.98,0 36.937,-16.719 36.937,-46.711 v -69.734 h -39.328"
         style="fill:#100f0e;fill-opacity:1;fill-rule:nonzero;stroke:none"
         transform="matrix(0.13333333,0,0,-0.13333333,0,110.96)" />
      <path
         id="path17"
         d="m 1004.55,260.879 c -7.601,-3.691 -17.171,-6.074 -28.249,-6.074 -20.625,0 -30.196,10.429 -30.196,36.281 v 49.527 h -17.367 v 30.637 h 17.367 v 28.887 l 38.028,15.437 V 371.25 h 24.767 v -30.637 h -24.767 v -41.269 c 0,-8.699 3.246,-11.309 9.769,-11.309 5.215,0 9.568,1.953 15.648,6.094 l -5,-33.25"
         style="fill:#100f0e;fill-opacity:1;fill-rule:nonzero;stroke:none"
         transform="matrix(0.13333333,0,0,-0.13333333,0,110.96)" />
      <path
         id="path18"
         d="m 1076.45,344.734 c -8.9,0 -13.9,-6.074 -15.21,-17.382 h 32.6 c -1.95,11.527 -5.88,17.382 -17.39,17.382 z m 51.71,-41.699 h -66.92 c 1.31,-12.605 8.69,-18.25 19.34,-18.25 10,0 18.26,2.176 29.55,8.035 l 14.98,-24.988 c -14.12,-8.262 -28.67,-13.027 -46.48,-13.027 -34.33,0 -53.24,24.316 -53.24,59.304 0,39.317 22.18,59.524 52.16,59.524 31.28,0 50.83,-20.625 50.83,-63 0,-3.262 0,-5.645 -0.22,-7.598"
         style="fill:#100f0e;fill-opacity:1;fill-rule:nonzero;stroke:none"
         transform="matrix(0.13333333,0,0,-0.13333333,0,110.96)" />
      <path
         id="path19"
         d="m 1151.41,257.188 v 142.734 l 39.11,15.652 V 257.188 h -39.11"
         style="fill:#100f0e;fill-opacity:1;fill-rule:nonzero;stroke:none"
         transform="matrix(0.13333333,0,0,-0.13333333,0,110.96)" />
      <path
         id="path20"
         d="m 1219.19,257.188 v 142.734 l 39.11,15.652 V 257.188 h -39.11"
         style="fill:#100f0e;fill-opacity:1;fill-rule:nonzero;stroke:none"
         transform="matrix(0.13333333,0,0,-0.13333333,0,110.96)" />
      <path
         id="path21"
         d="M 1286.97,257.188 V 371.25 h 39.12 V 257.188 Z m 19.56,122.324 c -12.82,0 -22.37,7.383 -22.37,19.336 0,11.074 9.55,18.886 22.37,18.886 13.47,0 22.82,-7.812 22.82,-18.886 0,-11.953 -9.35,-19.336 -22.82,-19.336"
         style="fill:#100f0e;fill-opacity:1;fill-rule:nonzero;stroke:none"
         transform="matrix(0.13333333,0,0,-0.13333333,0,110.96)" />
      <path
         id="path22"
         d="m 1414.3,336.047 c -3.91,3.258 -7.83,5.426 -13.91,5.426 -8.02,0 -12.38,-4.981 -12.38,-26.27 0,-22.812 4.36,-28.242 12.6,-28.242 5.64,0 9.78,2.16 13.69,5.43 z m -20.21,-120.805 -14.35,22.61 c 27.82,4.57 34.56,8.906 34.56,24.55 v 3.907 c -7.6,-6.075 -15,-10.43 -26.94,-10.43 -21.29,0 -37.8,15.644 -37.8,58.016 0,40.839 14.55,59.738 39.33,59.738 11.5,0 19.1,-5.215 25.41,-9.981 v 7.598 h 39.33 v -96.895 c 0,-39.101 -18.26,-53.234 -59.54,-59.113"
         style="fill:#100f0e;fill-opacity:1;fill-rule:nonzero;stroke:none"
         transform="matrix(0.13333333,0,0,-0.13333333,0,110.96)" />
      <path
         id="path23"
         d="m 1526.62,344.734 c -8.9,0 -13.91,-6.074 -15.22,-17.382 h 32.61 c -1.96,11.527 -5.88,17.382 -17.39,17.382 z m 51.7,-41.699 h -66.92 c 1.31,-12.605 8.7,-18.25 19.34,-18.25 10,0 18.27,2.176 29.56,8.035 l 14.98,-24.988 c -14.13,-8.262 -28.68,-13.027 -46.49,-13.027 -34.32,0 -53.23,24.316 -53.23,59.304 0,39.317 22.17,59.524 52.16,59.524 31.27,0 50.82,-20.625 50.82,-63 0,-3.262 0,-5.645 -0.22,-7.598"
         style="fill:#100f0e;fill-opacity:1;fill-rule:nonzero;stroke:none"
         transform="matrix(0.13333333,0,0,-0.13333333,0,110.96)" />
      <path
         id="path24"
         d="m 1665.88,257.188 v 64.734 c 0,14.789 -5,18.691 -13.05,18.691 -8.24,0 -13.25,-3.902 -13.25,-18.242 v -65.183 h -39.1 V 371.25 h 39.1 v -7.598 c 7.17,5.43 15.21,9.981 28.68,9.981 24.98,0 36.94,-16.719 36.94,-46.711 v -69.734 h -39.32"
         style="fill:#100f0e;fill-opacity:1;fill-rule:nonzero;stroke:none"
         transform="matrix(0.13333333,0,0,-0.13333333,0,110.96)" />
      <path
         id="path25"
         d="m 1779.71,254.805 c -33.47,0 -53.45,21.289 -53.45,59.734 0,34.981 17.81,59.094 54.33,59.094 21.5,0 33.88,-9.981 43.87,-26.067 l -26.94,-20.429 c -5.43,10 -9.12,14.785 -17.6,14.785 -9.99,0 -14.99,-10 -14.99,-28.027 0,-18.028 5.44,-27.391 16.09,-27.391 7.38,0 12.6,4.141 19.76,14.793 l 24.77,-19.344 c -13.24,-19.551 -25.63,-27.148 -45.84,-27.148"
         style="fill:#100f0e;fill-opacity:1;fill-rule:nonzero;stroke:none"
         transform="matrix(0.13333333,0,0,-0.13333333,0,110.96)" />
      <path
         id="path26"
         d="m 1889.88,344.734 c -8.91,0 -13.91,-6.074 -15.22,-17.382 h 32.6 c -1.95,11.527 -5.88,17.382 -17.38,17.382 z m 51.7,-41.699 h -66.92 c 1.31,-12.605 8.69,-18.25 19.34,-18.25 10,0 18.26,2.176 29.56,8.035 l 14.98,-24.988 c -14.12,-8.262 -28.67,-13.027 -46.5,-13.027 -34.31,0 -53.23,24.316 -53.23,59.304 0,39.317 22.18,59.524 52.16,59.524 31.28,0 50.83,-20.625 50.83,-63 0,-3.262 0,-5.645 -0.22,-7.598"
         style="fill:#100f0e;fill-opacity:1;fill-rule:nonzero;stroke:none"
         transform="matrix(0.13333333,0,0,-0.13333333,0,110.96)" />
      <path
         id="path27"
         d="m 478.27,370.477 c -203.204,0 -367.93,62.461 -367.93,139.445 0,58.754 95.816,108.957 231.387,129.508 C 219.059,703.547 98.5313,709.258 37.6445,643.23 -46.4961,551.934 15.1484,358.184 175.328,210.516 335.512,62.8203 533.625,17.1172 617.762,108.387 c 55.375,60.09 47.605,164.543 -9.821,271.015 -40.336,-5.742 -84.019,-8.925 -129.671,-8.925"
         style="fill:#4cb9e6;fill-opacity:1;fill-rule:nonzero;stroke:none"
         transform="matrix(0.13333333,0,0,-0.13333333,0,110.96)" />
      <path
         id="path28"
         d="m 647.539,643.746 c 0,104.086 -69.203,188.445 -154.566,188.445 -85.364,0 -154.578,-84.359 -154.578,-188.445 0,-104.098 69.214,-188.445 154.578,-188.445 85.363,0 154.566,84.347 154.566,188.445"
         style="fill:#4cb9e6;fill-opacity:1;fill-rule:nonzero;stroke:none"
         transform="matrix(0.13333333,0,0,-0.13333333,0,110.96)" />
      <path
         id="path29"
         d="m 770.383,674.723 h -17.219 c -3.988,0 -20.152,-0.633 -20.152,-0.633 l -1.051,1.262 c 0.629,19.527 1.051,38.843 1.051,58.367 v 14.699 c 0,24.355 -0.211,48.922 -1.891,73.277 l 1.051,1.258 h 14.484 c 6.93,0 19.11,0.422 23.516,0.629 l 0.84,-1.258 c -0.629,-28.765 -1.047,-57.738 -1.047,-86.715 0,-19.945 0.418,-39.89 1.469,-59.629 l -1.051,-1.257"
         style="fill:#4cb9e6;fill-opacity:1;fill-rule:nonzero;stroke:none"
         transform="matrix(0.13333333,0,0,-0.13333333,0,110.96)" />
      <path
         id="path30"
         d="m 896.578,701.598 c -0.625,-8.61 -1.055,-17.637 -1.465,-25.618 l -1.679,-1.257 c -30.664,0 -61.524,-0.211 -92.387,-0.422 l -1.051,1.469 c 0.84,19.316 1.051,38.632 1.051,58.16 v 43.461 c 0,14.91 -0.211,29.605 -1.469,44.304 l 1.258,1.258 c 22.891,0 78.32,0.422 92.168,0.422 l 1.055,-1.262 c -0.625,-8.609 -1.258,-16.168 -1.465,-24.355 l -1.27,-1.258 c -18.047,0.418 -35.898,0.629 -53.75,0.629 0,-3.988 -0.203,-9.66 -0.203,-15.539 0,-6.719 0,-13.438 0.203,-17.844 17.012,0 33.809,0.207 50.606,0.84 l 1.261,-1.473 c -0.636,-7.976 -1.046,-15.746 -1.476,-23.722 l -1.25,-1.262 c -30.867,0.211 -49.141,0.211 -49.141,0.211 0,-12.387 0.215,-24.567 0.43,-36.742 19.316,0 38.418,0.418 57.519,1.468 l 1.055,-1.468"
         style="fill:#4cb9e6;fill-opacity:1;fill-rule:nonzero;stroke:none"
         transform="matrix(0.13333333,0,0,-0.13333333,0,110.96)" />
      <path
         id="path31"
         d="m 1012.5,701.598 c -0.63,-8.61 -1.06,-17.637 -1.47,-25.618 l -1.68,-1.257 c -30.662,0 -61.522,-0.211 -92.381,-0.422 l -1.055,1.469 c 0.84,19.316 1.055,38.632 1.055,58.16 v 43.461 c 0,14.91 -0.215,29.605 -1.473,44.304 l 1.258,1.258 c 22.891,0 78.32,0.422 92.166,0.422 l 1.06,-1.262 c -0.63,-8.609 -1.26,-16.168 -1.47,-24.355 l -1.27,-1.258 c -18.045,0.418 -35.896,0.629 -53.748,0.629 0,-3.988 -0.203,-9.66 -0.203,-15.539 0,-6.719 0,-13.438 0.203,-17.844 17.012,0 33.809,0.207 50.608,0.84 l 1.26,-1.473 c -0.64,-7.976 -1.05,-15.746 -1.48,-23.722 l -1.25,-1.262 c -30.864,0.211 -49.138,0.211 -49.138,0.211 0,-12.387 0.215,-24.567 0.43,-36.742 19.316,0 38.418,0.418 57.518,1.468 l 1.06,-1.468"
         style="fill:#4cb9e6;fill-opacity:1;fill-rule:nonzero;stroke:none"
         transform="matrix(0.13333333,0,0,-0.13333333,0,110.96)" />
      <path
         id="path32"
         d="m 1128.43,701.598 c -0.64,-8.61 -1.05,-17.637 -1.48,-25.618 l -1.68,-1.257 c -30.64,0 -61.51,-0.211 -92.38,-0.422 l -1.05,1.469 c 0.84,19.316 1.05,38.632 1.05,58.16 v 43.461 c 0,14.91 -0.21,29.605 -1.47,44.304 l 1.26,1.258 c 22.88,0 78.31,0.422 92.18,0.422 l 1.05,-1.262 c -0.64,-8.609 -1.26,-16.168 -1.48,-24.355 l -1.25,-1.258 c -18.07,0.418 -35.91,0.629 -53.75,0.629 0,-3.988 -0.21,-9.66 -0.21,-15.539 0,-6.719 0,-13.438 0.21,-17.844 17,0 33.8,0.207 50.6,0.84 l 1.26,-1.473 c -0.63,-7.976 -1.06,-15.746 -1.47,-23.722 l -1.27,-1.262 c -30.86,0.211 -49.12,0.211 -49.12,0.211 0,-12.387 0.21,-24.567 0.41,-36.742 19.32,0 38.43,0.418 57.54,1.468 l 1.05,-1.468"
         style="fill:#4cb9e6;fill-opacity:1;fill-rule:nonzero;stroke:none"
         transform="matrix(0.13333333,0,0,-0.13333333,0,110.96)" />
      <path
         id="path33"
         d="m 729.652,58.3672 c 0.84,10.918 1.258,18.6836 1.469,29.6016 l 1.891,0.6328 c 7.976,-6.0938 18.265,-13.0157 36.32,-13.0157 15.746,0 24.988,7.3438 24.988,17.4219 0,9.6602 -9.242,15.3322 -24.777,22.0512 l -7.77,3.359 c -11.546,5.039 -31.492,14.902 -31.492,40.516 0,25.832 17.215,44.511 52.699,44.511 19.528,0 30.446,-3.777 39.473,-7.761 l 1.051,-1.262 c -0.84,-9.871 -1.469,-17.43 -1.891,-27.711 l -1.89,-0.844 c -13.645,10.703 -27.293,11.762 -32.121,11.762 -13.649,0 -20.997,-6.516 -20.997,-14.281 0,-10.078 9.446,-13.856 22.465,-19.11 l 10.078,-3.984 c 18.895,-7.559 31.707,-20.371 31.707,-43.672 0,-28.7695 -21.21,-47.664 -56.902,-47.664 -22.465,0 -33.383,4.1953 -43.043,7.7695 l -1.258,1.6797"
         style="fill:#4cb9e6;fill-opacity:1;fill-rule:nonzero;stroke:none"
         transform="matrix(0.13333333,0,0,-0.13333333,0,110.96)" />
      <path
         id="path34"
         d="m 900.367,71.8047 c 15.332,0 18.899,15.957 18.899,36.5353 0,14.48 -1.262,35.691 -19.739,35.691 -15.742,0 -19.316,-15.113 -19.316,-35.691 0,-19.1134 2.941,-36.5353 20.156,-36.5353 z M 898.27,49.5508 c -21.836,0 -54.797,6.9219 -54.797,57.3122 0,18.899 3.984,59.004 57.734,59.004 52.285,0 54.172,-42.832 54.375,-57.945 0,-42.629 -22.461,-58.3712 -57.312,-58.3712"
         style="fill:#4cb9e6;fill-opacity:1;fill-rule:nonzero;stroke:none"
         transform="matrix(0.13333333,0,0,-0.13333333,0,110.96)" />
      <path
         id="path35"
         d="m 1055.13,54.7969 c -6.09,-1.6836 -14.27,-4.6211 -27.51,-4.6211 -34.636,0 -59.421,19.7344 -59.421,57.1092 0,15.75 6.934,58.582 57.951,58.582 14.71,0 24.15,-3.152 30.45,-5.457 l 1.05,-1.476 c -1.47,-9.024 -2.11,-15.743 -2.95,-24.981 l -1.88,-0.633 c -4.4,3.153 -10.71,7.559 -21,7.559 -26.67,0 -26.67,-30.02 -26.67,-32.539 0,-4.836 0.64,-32.7541 28.56,-32.7541 10.51,0 17.43,3.9844 21.83,6.9219 l 1.68,-1.043 c -0.62,-9.4531 -0.84,-15.957 -1.04,-25.4101 l -1.05,-1.2578"
         style="fill:#4cb9e6;fill-opacity:1;fill-rule:nonzero;stroke:none"
         transform="matrix(0.13333333,0,0,-0.13333333,0,110.96)" />
      <path
         id="path36"
         d="m 1070.9,181.609 c 0.2,3.996 0.2,7.981 0.2,11.977 0,6.297 -0.2,10.918 -0.63,17.215 l 1.27,1.465 c 12.59,1.257 21.62,2.519 34.21,4.199 l 1.26,-1.262 c -0.42,-8.601 -0.63,-14.695 -0.63,-23.515 v -5.04 l -1.05,-1.464 c -12.39,-1.473 -20.99,-2.735 -33.17,-4.832 z m -0.22,-128.6988 c 1.06,19.1015 1.47,32.7539 1.47,52.0698 0,27.293 -0.84,40.516 -2.52,53.954 l 1.27,1.261 c 13.43,2.102 22.88,3.778 36.31,6.297 l 1.48,-1.679 c -0.43,-17.422 -0.64,-29.813 -0.64,-47.235 0,-23.7303 0.21,-40.5272 1.68,-64.0428 l -1.26,-1.4649 h -6.93 c -10.92,0 -18.48,-0.2148 -29.39,-0.6367 l -1.47,1.4766"
         style="fill:#4cb9e6;fill-opacity:1;fill-rule:nonzero;stroke:none"
         transform="matrix(0.13333333,0,0,-0.13333333,0,110.96)" />
      <path
         id="path37"
         d="m 1179.24,143.398 c -9.24,0 -17.21,-6.925 -18.27,-22.46 12.82,0 22.05,0.203 35.06,0.625 0,16.796 -9.24,21.835 -16.79,21.835 z m 43.88,-86.2886 c -8.82,-3.5742 -18.69,-7.5586 -36.95,-7.5586 -52.49,0 -60.25,38.2109 -60.25,57.9492 0,31.699 17.84,58.367 54.37,58.367 16.38,0 49.55,-4.414 49.55,-60.683 v -3.985 l -1.26,-1.4724 c -24.99,-0.4219 -42.63,-0.625 -67.82,-1.2618 2.11,-11.7539 8.61,-24.3554 30.87,-24.3554 15.75,0 26.45,5.6758 32.75,9.0351 l 1.48,-0.6367 c -0.84,-8.8164 -1.06,-14.9023 -1.48,-23.7187 l -1.26,-1.6797"
         style="fill:#4cb9e6;fill-opacity:1;fill-rule:nonzero;stroke:none"
         transform="matrix(0.13333333,0,0,-0.13333333,0,110.96)" />
      <path
         id="path38"
         d="m 1303.98,52.0703 c -9.24,-1.8945 -17.43,-2.5195 -23.31,-2.5195 -23.94,0 -31.92,14.4805 -31.92,31.2773 0,12.5977 0.21,17.6367 1.05,58.3709 -5.04,0 -8.4,-0.207 -13.44,-0.422 l -1.04,1.262 c 0.84,8.399 1.26,14.07 1.88,22.469 l 1.27,1.047 c 4.2,0 7.13,-0.207 11.12,-0.422 0.21,2.734 0.21,5.461 0.21,8.195 0,6.719 -0.21,11.34 -0.41,18.055 l 1.04,1.465 c 12.18,3.156 20.79,5.461 32.96,9.035 l 1.48,-1.262 c 0,-10.074 -0.42,-22.254 -0.64,-35.273 h 21 l 1.27,-1.258 c -1.06,-8.399 -1.48,-14.074 -2.11,-22.473 l -1.25,-1.258 c -6.94,0.418 -11.98,0.633 -18.91,0.84 0,0 -0.41,-36.113 -0.41,-44.7185 0,-14.2774 1.25,-20.3711 12.38,-20.3711 3.99,0 8.82,1.6836 9.66,2.1015 l 1.68,-1.0429 c -1.04,-7.9805 -1.47,-13.8594 -2.1,-21.6328 l -1.46,-1.4649"
         style="fill:#4cb9e6;fill-opacity:1;fill-rule:nonzero;stroke:none"
         transform="matrix(0.13333333,0,0,-0.13333333,0,110.96)" />
      <path
         id="path39"
         d="m 1365.71,0 c -5.04,0.203125 -10.08,0.421875 -14.92,0.421875 -5.88,0 -11.75,-0.21875 -17.63,-0.421875 l -1.05,1.67969 c 8.2,16.79691 12.8,28.97261 19.74,46.39451 -12.38,38.0117 -26.46,77.0628 -40.1,112.9608 l 1.05,1.473 c 13.64,0.207 23.51,0.84 37.15,1.887 l 1.68,-1.262 c 1.27,-6.715 11.35,-42.41 18.48,-69.0705 1.27,6.5035 16.8,53.5355 19.53,67.8125 l 1.68,1.473 c 10.7,0 18.26,0.207 29.18,0.625 l 0.84,-1.676 c -5.66,-16.582 -10.28,-27.922 -16.58,-44.301 -21.84,-56.9022 -31.7,-90.9179 -37.58,-116.53116 L 1365.71,0"
         style="fill:#4cb9e6;fill-opacity:1;fill-rule:nonzero;stroke:none"
         transform="matrix(0.13333333,0,0,-0.13333333,0,110.96)" />
      <path
         id="path40"
         d="m 1447.33,157.539 v -2.805 c 0,-0.847 0,-1.746 0.05,-3.445 0.2,0 0.35,-0.051 0.45,-0.051 3,0 4.3,0.996 4.3,3.254 0,2.196 -1.04,3.047 -3.95,3.047 z m 11.01,-18.262 c -2.16,-0.05 -2.7,-0.105 -4.8,-0.207 l -0.35,0.305 c 0,0 -2.1,4.199 -4.26,8.262 -0.4,-0.059 -0.75,-0.059 -0.95,-0.059 h -0.55 v -1.445 c 0,-1.602 0.05,-4.856 0.15,-6.563 l -0.3,-0.398 h -4.46 l -0.35,0.398 c 0,3.711 0.05,7.664 0.05,8.809 0,4.211 -0.1,7.961 -0.24,12.012 l 0.35,0.457 c 0,0 4.3,0.05 5.35,0.05 3.01,0 4.55,-0.207 5.96,-0.753 2.2,-0.848 3.45,-3.008 3.45,-5.704 0,-2.957 -1.1,-4.461 -3.95,-5.808 2.2,-3.797 3.65,-6.36 5.2,-8.957 z m -8.76,25.575 c -8.61,0 -15.31,-6.61 -15.31,-15.118 0,-8.308 6.9,-15.066 15.41,-15.066 8.21,0 14.86,6.66 14.86,14.91 0,8.715 -6.45,15.274 -14.96,15.274 z m 0.35,-33.387 c -10.9,0 -19.07,7.812 -19.07,18.223 0,10.41 8.12,18.308 18.72,18.308 10.56,0 18.52,-7.801 18.52,-18.113 0,-10.711 -7.61,-18.418 -18.17,-18.418"
         style="fill:#4cb9e6;fill-opacity:1;fill-rule:nonzero;stroke:none"
         transform="matrix(0.13333333,0,0,-0.13333333,0,110.96)" />
    </g>
  </g>
</svg>
